<svg xmlns="http://www.w3.org/2000/svg" version="1.1" xmlns:xlink="http://www.w3.org/1999/xlink" xmlns:svgjs="http://svgjs.dev/svgjs" viewBox="0 0 800 800" opacity="0.33"><defs><linearGradient x1="50%" y1="0%" x2="50%" y2="100%" id="ccchaos-grad"><stop stop-color="hsl(206, 75%, 49%)" stop-opacity="1" offset="0%"></stop><stop stop-color="hsl(331, 90%, 56%)" stop-opacity="1" offset="100%"></stop></linearGradient></defs><g stroke-width="1" stroke="url(#ccchaos-grad)" fill="none" stroke-linecap="round"><path d="M420.03 -90.47C428.96 -89.4 437.89 -88.32 446.81 -87.27 455.74 -86.48 464.65 -85.76 473.55 -85.11 482.45 -84.73 491.33 -84.39 500.17 -84.07 509 -83.94 517.78 -83.74 526.5 -83.43 535.2 -83.17 543.81 -82.69 552.32 -81.95 560.78 -81.1 569.11 -79.9 577.29 -78.32 585.38 -76.51 593.28 -74.26 600.97 -71.57 608.53 -68.61 615.85 -65.21 622.88 -61.39 629.74 -57.33 636.29 -52.91 642.49 -48.16 648.5 -43.27 654.12 -38.14 659.35 -32.82 664.37 -27.5 668.98 -22.08 673.17 -16.61 677.17 -11.26 680.76 -5.93 683.95 -0.66 688.36 6.87 695.53 21.09 698.56 27.77 701.66 34.02 708.4 46.09 712.48 52.07 715.79 55.99 719.51 60.04 723.7 64.23 728.55 68.43 733.98 72.83 740.03 77.45 746.83 82.16 754.27 87.13 762.35 92.38 771.11 97.76 780.43 103.43 790.24 109.39 800.51 115.51 811.08 121.92 821.81 128.59 832.62 135.44 843.3 142.55 853.69 149.88 863.68 157.38 873.05 165.08 881.59 172.97 889.29 180.99 895.88 189.17 901.23 197.49 905.4 205.9 908.16 214.43 909.47 223.04 909.53 231.73 908.18 240.48 905.48 249.28 901.8 258.13 897.03 267.02 891.37 275.92 885.29 284.85 878.77 293.79 872.05 302.72 865.66 311.67 859.6 320.61 854.13 329.52 849.71 338.45 846.32 347.34 844.13 356.2 843.47 365.06 844.2 373.88 846.36 382.65 850.1 391.42 855.13 400.13 861.31 408.76 868.61 417.4 876.51 425.86 884.74 434.13 893.24 442.39 901.45 450.46 909.07 458.32 916.11 466.16 922.05 473.79 926.67 481.19 930.08 488.58 931.88 495.73 932.02 502.64 930.7 509.52 927.71 516.16 923.15 522.56 917.29 528.92 910.1 535.05 901.78 540.93 892.65 546.81 882.79 552.46 872.44 557.9 861.91 563.36 851.32 568.64 840.88 573.78 830.86 578.99 821.34 584.1 812.46 589.14 804.42 594.35 797.22 599.56 790.89 604.83 785.59 610.36 781.18 616.03 777.63 621.88 775.05 628.1 773.19 634.59 771.97 641.4 771.48 648.65 771.4 656.27 771.6 664.31 772.21 672.81 772.86 681.74 773.43 691.08 774.07 700.83 774.41 710.94 774.38 721.36 774.12 732.02 773.34 742.85 771.96 753.74 770.2 764.61 767.76 775.32 764.66 785.75 761.08 795.8 756.81 805.3 751.89 814.12 746.5 822.2 740.5 829.35 733.94 835.45 726.97 840.56 719.51 844.5 711.62 847.19 703.42 848.86 694.88 849.33 686.06 848.65 677.03 847.18 667.79 844.81 658.41 841.7 648.91 838.32 639.32 834.62 629.68 830.83 620.01 827.46 610.33 824.5 600.68 822.19 591.05 820.98 581.46 820.81 571.95 821.87 562.48 824.42 553.09 828.33 543.79 833.62 534.54 840.34 525.39 848.23 516.33 857.1 507.32 866.83 498.39 877 489.56 887.3 480.76 897.48 472.05 907.08 463.41 915.72 454.79 923.24 446.25 929.2 437.76 933.33 429.29 935.67 420.88 935.92 412.51 934.06 404.15 930.4 395.84 924.86 387.57 917.67 379.29 909.41 371.15 900.29 363.15 890.73 355.13 881.29 347.25 872.22 339.49 863.88 331.72 856.74 324.07 850.89 316.55 846.51 309.01 843.87 301.58 842.83 294.28 843.32 286.96 845.44 279.75 848.8 272.66 853.13 265.53 858.42 258.51 864.12 251.6 869.89 244.65 875.71 237.79 880.98 231.03 885.44 224.21 889.1 217.48 891.49 210.82 892.48 204.1 892.18 197.44 890.31 190.84 886.89 184.16 882.12 177.53 875.93 170.95 868.47 164.28 859.99 157.64 850.56 151.04 840.41 144.35 829.78 137.68 818.82 131.06 807.75 124.34 796.78 117.67 786.04 111.04 775.68 104.34 765.88 97.7 756.69 91.13 748.18 84.52 740.46 78 733.49 71.59 727.25 65.17 721.84 58.88 717.09 52.73 712.94 46.62 709.49 40.68 706.47 34.92 703.8 26.47 700.57 10.74 694.84 3.46 691.83 -3.48 688.56 -16.32 680.05 -22.27 674.59 -26.17 670.56 -29.93 666.05 -33.56 661.08 -37.23 655.85 -40.8 650.17 -44.26 644.06 -47.79 637.71 -51.23 630.98 -54.57 623.9 -57.98 616.62 -61.28 609.04 -64.45 601.2 -67.66 593.21 -70.71 585.01 -73.57 576.64 -76.42 568.17 -79.05 559.56 -81.42 550.85 -83.72 542.08 -85.73 533.25 -87.44 524.37 -89.03 515.46 -90.3 506.53 -91.25 497.59 -92.09 488.65 -92.62 479.71 -92.85 470.8 -93.03 461.89 -92.95 453.01 -92.65 444.17 -92.36 435.33 -91.9 426.54 -91.3 417.78 -90.78 409.03 -90.18 400.42 -89.5 391.95 -88.95 383.48 -88.34 375.14 -87.66 366.93 -87.09 358.7 -86.44 350.59 -85.68 342.59 -84.98 334.57 -84.13 326.64 -83.1 318.8 -82.06 310.92 -80.8 303.12 -79.31 295.37 -77.74 287.57 -75.91 279.82 -73.8 272.1 -71.6 264.3 -69.12 256.53 -66.36 248.76 -63.52 240.91 -60.43 233.05 -57.1 225.17 -53.73 217.2 -50.16 209.21 -46.4 201.19 -42.66 193.07 -38.76 184.94 -34.73 176.78 -30.75 168.54 -26.66 160.29 -22.47 152.04 -18.35 143.76 -14.14 135.5 -9.84 127.29 -5.59 119.09 -1.24 110.98 3.2 102.99 7.63 95.08 12.18 87.33 16.87 79.78 21.58 72.38 26.45 65.22 31.49 58.35 36.59 51.68 41.88 45.33 47.36 39.33 52.93 33.57 58.7 28.16 64.68 23.13 70.76 18.33 77.05 13.89 83.53 9.81 90.11 5.91 96.88 2.31 103.83 -0.99 110.85 -4.22 118.04 -7.24 125.38 -10.07 132.77 -12.95 140.29 -15.73 147.93 -18.45 155.6 -21.34 163.36 -24.24 171.21 -27.17 179.06 -30.36 186.99 -33.63 194.97 -36.99 202.94 -40.63 210.97 -44.35 219.04 -48.14 227.08 -52.15 235.16 -56.17 243.29 -60.18 251.38 -64.28 259.51 -68.28 267.69 -72.1 275.83 -75.89 284.01 -79.4 292.25 -82.6 300.45 -85.61 308.71 -88.23 317.03 -90.41 325.31 -92.32 333.67 -93.77 342.1 -94.76 350.51 -95.47 359 -95.75 367.57 -95.61 376.12 -95.31 384.77 -94.67 393.51 -93.74 402.25 -92.81 411.08 -91.7 420.02 -90.47" stroke-dasharray="2 8" transform="rotate(0, 400, 400)" opacity="0.79"></path><path d="M422.45 -71.08C431.09 -69.94 439.69 -68.8 448.23 -67.69 456.77 -66.86 465.25 -66.11 473.67 -65.44 482.08 -65.05 490.42 -64.73 498.67 -64.44 506.91 -64.36 515.04 -64.24 523.06 -64.04 531.04 -63.92 538.88 -63.61 546.57 -63.07 554.2 -62.45 561.65 -61.5 568.91 -60.21 576.07 -58.7 583.01 -56.78 589.7 -54.43 596.27 -51.81 602.57 -48.75 608.58 -45.26 614.45 -41.52 620 -37.39 625.21 -32.9 630.29 -28.24 635.02 -23.29 639.4 -18.11 643.64 -12.87 647.55 -7.48 651.12 -1.99 654.6 3.43 657.78 8.88 660.69 14.32 664.91 22.19 672.61 37.21 676.37 44.29 680.52 50.92 690.13 63.48 695.94 69.54 700.47 73.44 705.43 77.38 710.88 81.39 716.94 85.33 723.54 89.41 730.69 93.63 738.45 97.86 746.74 102.29 755.51 106.93 764.78 111.64 774.43 116.59 784.36 121.78 794.53 127.09 804.79 132.65 815.01 138.47 825.11 144.42 834.89 150.63 844.21 157.07 853.01 163.65 861.06 170.46 868.23 177.47 874.51 184.61 879.69 191.94 883.66 199.43 886.53 207.03 888.11 214.78 888.37 222.65 887.55 230.61 885.51 238.67 882.32 246.81 878.35 255.02 873.5 263.29 867.95 271.61 862.15 279.97 856.05 288.36 849.89 296.77 844.13 305.2 838.76 313.64 833.98 322.07 830.23 330.52 827.43 338.94 825.74 347.33 825.45 355.73 826.42 364.08 828.67 372.38 832.33 380.69 837.15 388.93 842.99 397.09 849.84 405.25 857.25 413.23 864.94 421.03 872.91 428.82 880.65 436.42 887.9 443.82 894.68 451.21 900.49 458.4 905.17 465.39 908.8 472.37 911 479.14 911.72 485.71 911.13 492.28 909.01 498.65 905.42 504.84 900.61 511.03 894.51 517.04 887.28 522.9 879.2 528.79 870.31 534.55 860.81 540.2 850.99 545.92 840.95 551.58 830.86 557.19 820.98 562.94 811.39 568.7 802.23 574.5 793.71 580.52 785.82 586.64 778.65 592.92 772.34 599.47 766.81 606.24 762.06 613.25 758.2 620.6 755.07 628.24 752.58 636.2 750.85 644.52 749.63 653.17 748.81 662.15 748.5 671.46 748.4 681.06 748.39 690.92 748.63 701 748.77 711.24 748.72 721.57 748.66 731.92 748.25 742.2 747.43 752.31 746.4 762.17 744.85 771.66 742.78 780.66 740.36 789.11 737.35 796.87 733.78 803.81 729.81 809.97 725.27 815.16 720.18 819.3 714.73 822.55 708.76 824.71 702.34 825.78 695.59 826.03 688.45 825.31 680.94 823.71 673.2 821.6 665.16 818.88 656.89 815.72 648.45 812.57 639.82 809.38 631.06 806.35 622.2 803.94 613.25 802.1 604.24 801.03 595.19 801.09 586.12 802.21 577.05 804.5 567.97 808.16 558.92 813.04 549.91 819.1 540.92 826.37 531.98 834.58 523.1 843.53 514.26 853.1 505.47 862.91 496.76 872.66 488.08 882.15 479.47 890.98 470.93 898.81 462.41 905.53 453.96 910.74 445.58 914.25 437.22 916.1 428.91 916.03 420.67 914.04 412.44 910.43 404.26 905.11 396.14 898.29 388.02 890.49 380.04 881.88 372.2 872.84 364.36 863.87 356.65 855.17 349.07 847.07 341.48 839.98 334.01 834.01 326.67 829.32 319.3 826.18 312.05 824.48 304.92 824.18 297.75 825.42 290.69 827.84 283.74 831.27 276.75 835.71 269.85 840.67 263.04 845.89 256.18 851.34 249.4 856.5 242.7 861.12 235.93 865.2 229.23 868.3 222.6 870.25 215.89 871.15 209.23 870.68 202.62 868.81 195.93 865.73 189.28 861.27 182.66 855.53 175.96 848.75 169.3 840.9 162.67 832.17 155.96 822.78 149.28 812.84 142.64 802.51 135.94 792.02 129.28 781.48 122.68 771.04 116.03 760.88 109.46 751.07 102.96 741.71 96.46 732.92 90.05 724.72 83.76 717.13 77.49 710.24 71.36 703.97 65.39 698.29 59.46 693.3 53.71 688.81 48.14 684.78 40 679.7 24.85 671.33 17.85 667.59 11.16 664.06 -1.18 656.21 -6.89 651.61 -12.43 646.53 -22.89 634.3 -27.86 627.1 -31.18 622 -34.4 616.53 -37.51 610.7 -40.68 604.71 -43.72 598.39 -46.64 591.78 -49.58 585.02 -52.37 578 -54.99 570.74 -57.6 563.38 -60 555.82 -62.18 548.08 -64.31 540.28 -66.18 532.32 -67.79 524.26 -69.33 516.14 -70.59 507.94 -71.56 499.66 -72.47 491.36 -73.1 483 -73.47 474.59 -73.8 466.19 -73.9 457.74 -73.79 449.28 -73.68 440.82 -73.41 432.34 -72.98 423.85 -72.61 415.36 -72.12 406.95 -71.52 398.64 -71.02 390.32 -70.41 382.08 -69.71 373.93 -69.09 365.76 -68.35 357.66 -67.48 349.63 -66.66 341.58 -65.68 333.58 -64.53 325.63 -63.37 317.65 -62 309.7 -60.41 301.78 -58.78 293.82 -56.91 285.87 -54.79 277.93 -52.61 269.93 -50.19 261.94 -47.52 253.94 -44.8 245.87 -41.85 237.8 -38.69 229.71 -35.51 221.57 -32.14 213.41 -28.61 205.25 -25.09 197.04 -21.43 188.83 -17.64 180.64 -13.9 172.43 -10.04 164.26 -6.1 156.14 -2.21 148.04 1.76 140.03 5.83 132.13 9.84 124.3 13.95 116.62 18.17 109.12 22.35 101.75 26.65 94.6 31.08 87.7 35.52 80.99 40.1 74.56 44.85 68.43 49.63 62.53 54.59 56.95 59.74 51.72 64.96 46.71 70.37 42.05 75.98 37.73 81.68 33.59 87.58 29.77 93.68 26.25 99.88 22.85 106.27 19.69 112.84 16.74 119.5 13.81 126.33 11.02 133.32 8.34 140.39 5.56 147.59 2.81 154.94 0.06 162.33 -2.88 169.84 -5.88 177.45 -8.97 185.09 -12.31 192.82 -15.75 200.63 -19.29 208.44 -23.09 216.33 -26.97 224.27 -30.91 232.21 -35.03 240.2 -39.14 248.24 -43.21 256.26 -47.33 264.33 -51.32 272.44 -55.11 280.53 -58.82 288.66 -62.23 296.83 -65.31 304.98 -68.18 313.18 -70.64 321.42 -72.66 329.64 -74.4 337.91 -75.68 346.23 -76.5 354.53 -77.05 362.89 -77.17 371.31 -76.88 379.72 -76.44 388.18 -75.67 396.71 -74.64 405.23 -73.6 413.81 -72.4 422.44 -71.09" stroke-dasharray="3 1" transform="rotate(4.04, 400, 400)" opacity="0.82"></path><path d="M421.1 -51.7C429.37 -50.48 437.55 -49.28 445.65 -48.13 453.73 -47.25 461.72 -46.46 469.61 -45.77 477.48 -45.36 485.23 -45.04 492.85 -44.76 500.46 -44.72 507.92 -44.65 515.22 -44.54 522.48 -44.52 529.57 -44.35 536.47 -43.99 543.32 -43.58 549.95 -42.88 556.37 -41.85 562.71 -40.65 568.8 -39.05 574.65 -37.05 580.4 -34.79 585.89 -32.1 591.09 -28.99 596.2 -25.61 601.02 -21.83 605.56 -17.67 610.01 -13.31 614.17 -8.62 618.07 -3.66 621.9 1.41 625.49 6.68 628.84 12.1 632.19 17.52 635.36 23.02 638.37 28.55 641.46 33.97 644.47 39.37 647.44 44.72 650.59 49.87 653.79 54.94 657.08 59.92 660.68 64.67 664.47 69.32 668.5 73.88 672.95 78.22 677.72 82.49 682.86 86.71 688.51 90.74 694.58 94.76 701.1 98.78 708.15 102.68 715.65 106.64 723.58 110.68 731.99 114.66 740.77 118.76 749.88 123 759.29 127.24 768.9 131.66 778.6 136.27 788.36 140.94 798.01 145.81 807.44 150.9 816.6 156.07 825.31 161.47 833.42 167.09 840.94 172.81 847.64 178.75 853.43 184.89 858.34 191.14 862.19 197.59 864.89 204.21 866.61 210.94 867.15 217.83 866.53 224.87 865.01 231.99 862.44 239.24 858.92 246.6 854.8 254.04 849.99 261.56 844.65 269.16 839.2 276.82 833.58 284.53 828 292.29 822.88 300.08 818.17 307.9 814.06 315.73 810.92 323.59 808.68 331.45 807.45 339.29 807.49 347.15 808.67 354.98 810.98 362.78 814.56 370.59 819.16 378.35 824.67 386.05 831.09 393.76 838.01 401.31 845.19 408.71 852.65 416.11 859.93 423.34 866.79 430.42 873.27 437.5 878.94 444.42 883.62 451.18 887.39 457.94 889.92 464.56 891.13 471.04 891.18 477.53 889.84 483.89 887.15 490.14 883.33 496.42 878.27 502.61 872.1 508.73 865.08 514.91 857.2 521.05 848.63 527.17 839.64 533.4 830.27 539.65 820.71 545.94 811.18 552.39 801.76 558.94 792.57 565.61 783.81 572.49 775.5 579.53 767.74 586.76 760.66 594.25 754.24 601.96 748.48 609.91 743.5 618.13 739.19 626.6 735.51 635.33 732.56 644.3 730.15 653.49 728.21 662.89 726.84 672.46 725.79 682.16 724.97 691.94 724.51 701.75 724.12 711.52 723.71 721.18 723.43 730.66 722.99 739.88 722.32 748.74 721.59 757.19 720.52 765.12 719.06 772.41 716.34 782.04 708.17 796.02 702.65 800.11 696.18 802.12 680.53 800.82 671.46 797.97 665.04 795.64 658.29 792.96 651.23 790.12 643.98 787.51 636.49 785.09 628.78 783.02 620.94 781.69 612.93 781.04 604.79 781.22 596.57 782.52 588.25 784.83 579.86 788.23 571.43 792.84 562.96 798.51 554.48 805.17 545.98 812.81 537.48 821.16 528.99 830.04 520.51 839.33 512.06 848.68 503.64 857.82 495.23 866.6 486.87 874.64 478.56 881.67 470.26 887.61 462.01 892.13 453.82 895.05 445.64 896.45 437.5 896.1 429.43 894.01 421.36 890.46 413.33 885.36 405.36 878.9 397.39 871.55 389.56 863.45 381.86 854.92 374.16 846.41 366.58 838.1 359.13 830.25 351.66 823.28 344.31 817.24 337.07 812.31 329.81 808.75 322.66 806.46 315.61 805.46 308.52 805.86 301.53 807.4 294.63 809.93 287.69 813.49 280.82 817.67 274.03 822.23 267.19 827.18 260.42 832.05 253.71 836.6 246.93 840.87 240.21 844.41 233.54 847.05 226.8 848.89 220.1 849.58 213.44 849.06 206.71 847.48 200.02 844.63 193.36 840.57 186.63 835.48 179.93 829.29 173.28 822.14 166.56 814.23 159.89 805.58 153.26 796.37 146.59 786.77 139.99 776.89 133.45 766.86 126.89 756.85 120.42 746.93 114.05 737.24 107.68 727.87 101.43 718.89 95.32 710.34 89.24 702.33 83.31 694.82 77.54 687.83 71.84 681.43 66.31 675.53 60.97 670.1 55.72 665.22 50.65 660.73 45.8 656.57 38.73 651.1 25.7 641.47 19.71 636.97 13.96 632.64 3.29 623.33 -1.67 618.15 -6.55 612.62 -15.79 599.96 -20.16 592.78 -23.08 587.78 -25.88 582.47 -28.56 576.87 -31.26 571.16 -33.82 565.17 -36.22 558.92 -38.62 552.59 -40.84 546.01 -42.85 539.22 -44.85 532.35 -46.63 525.3 -48.17 518.07 -49.67 510.79 -50.93 503.36 -51.95 495.79 -52.93 488.2 -53.66 480.48 -54.17 472.66 -54.64 464.83 -54.91 456.91 -54.97 448.9 -55.04 440.88 -54.93 432.79 -54.66 424.63 -54.42 416.47 -54.04 408.34 -53.53 400.23 -53.08 392.13 -52.49 384.06 -51.79 376.01 -51.13 367.96 -50.33 359.93 -49.38 351.93 -48.47 343.91 -47.38 335.91 -46.12 327.93 -44.85 319.92 -43.39 311.92 -41.72 303.92 -40.02 295.89 -38.1 287.87 -35.96 279.84 -33.78 271.78 -31.38 263.71 -28.76 255.64 -26.12 247.55 -23.28 239.45 -20.24 231.36 -17.21 223.25 -14 215.16 -10.64 207.09 -7.31 199.03 -3.84 191.01 -0.26 183.04 3.26 175.12 6.9 167.28 10.63 159.54 14.3 151.89 18.05 144.37 21.9 137.01 25.68 129.78 29.56 122.74 33.53 115.92 37.46 109.27 41.51 102.88 45.67 96.76 49.82 90.83 54.11 85.2 58.55 79.89 63.01 74.78 67.63 69.98 72.42 65.51 77.26 61.22 82.29 57.23 87.5 53.54 92.79 49.98 98.28 46.67 103.95 43.6 109.72 40.57 115.67 37.72 121.81 35.01 128.03 32.25 134.44 29.56 141.01 26.91 147.66 24.11 154.47 21.3 161.42 18.44 168.44 15.34 175.59 12.16 182.86 8.89 190.18 5.36 197.6 1.72 205.11 -2 212.66 -5.97 220.29 -10 227.99 -14.06 235.71 -18.26 243.49 -22.43 251.33 -26.52 259.17 -30.63 267.06 -34.56 274.99 -38.27 282.93 -41.87 290.9 -45.15 298.9 -48.07 306.91 -50.77 314.95 -53.05 323.01 -54.88 331.08 -56.43 339.17 -57.53 347.29 -58.17 355.41 -58.55 363.56 -58.51 371.74 -58.09 379.92 -57.51 388.12 -56.63 396.35 -55.49 404.58 -54.36 412.83 -53.08 421.09 -51.7" stroke-dasharray="11 6" transform="rotate(8.08, 400, 400)" opacity="0.26"></path><path d="M416.2 -32.31C424.04 -31.04 431.76 -29.79 439.36 -28.59 446.95 -27.66 454.42 -26.83 461.74 -26.11 469.06 -25.67 476.23 -25.32 483.24 -25.05 490.23 -25.01 497.05 -24.98 503.69 -24.93 510.3 -24.99 516.72 -24.94 522.94 -24.73 532.09 -24.25 549.21 -21.69 557.15 -19.4 564.77 -16.35 578.75 -7.81 585.13 -2.35 589.28 1.65 593.23 6 596.98 10.66 600.75 15.47 604.36 20.53 607.85 25.79 611.4 31.1 614.88 36.54 618.31 42.07 621.9 47.55 625.5 53.05 629.16 58.56 633.07 63.92 637.1 69.23 641.31 74.47 645.85 79.52 650.63 84.48 655.69 89.36 661.15 94.02 666.94 98.59 673.08 103.09 679.66 107.38 686.61 111.62 693.93 115.82 701.67 119.86 709.74 123.9 718.12 127.96 726.81 131.9 735.73 135.9 744.81 139.97 754.03 143.99 763.27 148.11 772.43 152.37 781.49 156.61 790.3 161.01 798.74 165.57 806.8 170.16 814.3 174.93 821.15 179.89 827.34 184.9 832.71 190.1 837.17 195.49 840.8 200.95 843.43 206.6 845.01 212.42 845.72 218.32 845.4 224.39 844.07 230.61 842.01 236.9 839.08 243.34 835.36 249.91 831.22 256.54 826.56 263.29 821.51 270.14 816.47 277.04 811.37 284.02 806.38 291.08 801.89 298.17 797.84 305.33 794.36 312.53 791.8 319.75 790.07 327.01 789.26 334.29 789.6 341.58 790.94 348.88 793.29 356.19 796.78 363.5 801.16 370.81 806.35 378.1 812.36 385.4 818.8 392.59 825.48 399.68 832.44 406.76 839.26 413.75 845.73 420.63 851.91 427.51 857.39 434.3 862.02 440.99 865.89 447.7 868.67 454.32 870.29 460.88 870.89 467.46 870.24 473.99 868.36 480.48 865.45 487.02 861.37 493.54 856.23 500.07 850.25 506.67 843.39 513.31 835.8 519.99 827.71 526.79 819.15 533.67 810.25 540.65 801.25 547.79 792.19 555.05 783.19 562.46 774.45 570.05 765.98 577.81 757.88 585.76 750.3 593.89 743.22 602.21 736.68 610.71 730.79 619.38 725.48 628.22 720.74 637.21 716.67 646.31 713.12 655.5 710.06 664.75 707.58 674.01 705.48 683.24 703.7 692.38 702.35 701.39 701.18 710.18 700.13 718.7 699.33 726.91 698.52 734.7 697.63 742 696.31 751.91 692.46 767.46 689.68 772.82 681.73 777.45 664.95 775.14 657.69 772.04 652.5 769.85 646.96 767.57 641.1 765.33 635.05 763.51 628.72 762.04 622.13 761.05 615.39 760.88 608.43 761.43 601.28 762.81 594.02 765.26 586.61 768.64 579.07 772.97 571.46 778.37 563.75 784.65 555.96 791.71 548.13 799.54 540.25 807.89 532.33 816.56 524.39 825.47 516.44 834.28 508.47 842.75 500.5 850.79 492.53 858.05 484.57 864.3 476.62 869.5 468.68 873.36 460.77 875.74 452.87 876.73 444.99 876.14 437.14 873.97 429.29 870.49 421.47 865.62 413.68 859.51 405.89 852.6 398.22 844.99 390.67 836.96 383.1 828.92 375.65 821 368.31 813.44 360.95 806.61 353.69 800.56 346.53 795.46 339.34 791.55 332.25 788.77 325.24 787.13 318.19 786.77 311.23 787.48 304.34 789.15 297.41 791.83 290.54 795.18 283.74 799.01 276.88 803.35 270.09 807.77 263.34 812.07 256.54 816.3 249.78 820.04 243.06 823.12 236.29 825.62 229.55 827.21 222.85 827.78 216.1 827.48 209.38 826.06 202.7 823.53 195.98 820.06 189.29 815.52 182.65 810 175.98 803.67 169.35 796.52 162.8 788.67 156.22 780.29 149.72 771.44 143.3 762.24 136.89 752.84 130.59 743.32 124.39 733.79 118.23 724.36 112.19 715.1 106.3 706.08 100.47 697.4 94.79 689.06 89.28 681.11 83.85 673.62 78.59 666.55 73.53 659.89 68.55 653.72 63.77 647.95 59.18 642.54 54.67 637.57 50.36 632.9 46.24 628.48 40.26 622.45 29.24 611.42 24.17 606.14 19.25 601.02 10.07 590.32 5.77 584.57 1.52 578.61 -6.48 565.43 -10.23 558.18 -12.72 553.21 -15.07 547.97 -17.29 542.5 -19.52 536.96 -21.59 531.18 -23.48 525.17 -25.37 519.11 -27.08 512.84 -28.59 506.36 -30.08 499.84 -31.36 493.13 -32.43 486.25 -33.48 479.34 -34.31 472.27 -34.95 465.04 -35.56 457.8 -35.97 450.41 -36.2 442.9 -36.42 435.38 -36.47 427.73 -36.34 419.96 -36.22 412.19 -35.95 404.4 -35.53 396.59 -35.13 388.78 -34.58 380.96 -33.88 373.12 -33.2 365.28 -32.36 357.43 -31.37 349.57 -30.38 341.71 -29.21 333.84 -27.87 325.95 -26.52 318.06 -24.97 310.16 -23.23 302.26 -21.46 294.35 -19.49 286.43 -17.32 278.51 -15.12 270.59 -12.73 262.67 -10.15 254.76 -7.55 246.86 -4.77 238.98 -1.83 231.13 1.1 223.31 4.18 215.54 7.4 207.82 10.59 200.16 13.9 192.58 17.32 185.1 20.68 177.71 24.13 170.44 27.68 163.32 31.15 156.32 34.71 149.49 38.35 142.87 41.93 136.39 45.59 130.14 49.33 124.14 53.03 118.3 56.83 112.74 60.73 107.45 64.61 102.34 68.61 97.52 72.73 93 79.01 86.6 92.37 75.39 99.49 70.5 104.35 67.37 109.4 64.44 114.62 61.67 119.92 58.87 125.41 56.18 131.07 53.57 136.81 50.84 142.74 48.13 148.82 45.41 155 42.5 161.33 39.52 167.81 36.48 174.37 33.18 181.07 29.79 187.9 26.3 194.79 22.56 201.79 18.72 208.91 14.81 216.07 10.69 223.32 6.54 230.66 2.4 238.04 -1.85 245.48 -6.03 252.99 -10.09 260.53 -14.14 268.12 -17.97 275.75 -21.56 283.41 -25 291.1 -28.11 298.82 -30.85 306.56 -33.34 314.33 -35.41 322.11 -37.05 329.91 -38.39 337.72 -39.3 345.55 -39.76 353.39 -39.97 361.23 -39.78 369.08 -39.22 376.94 -38.52 384.8 -37.54 392.65 -36.32 400.51 -35.1 408.36 -33.75 416.19 -32.31" stroke-dasharray="4 1" transform="rotate(12.12, 400, 400)" opacity="0.72"></path><path d="M408.58 -12.92C415.94 -11.6 423.17 -10.3 430.27 -9.07 437.36 -8.09 444.31 -7.22 451.1 -6.46 457.89 -5.98 464.52 -5.6 470.98 -5.31 477.42 -5.26 483.69 -5.24 489.78 -5.22 498.79 -5.35 515.8 -5.05 523.79 -4.37 531.54 -3.23 546.03 1.05 552.79 4.31 559.36 8.35 571.78 18.74 577.71 24.99 581.69 29.46 585.61 34.21 589.48 39.2 593.49 44.3 597.5 49.57 601.55 54.99 605.79 60.42 610.13 65.92 614.59 71.48 619.31 76.95 624.21 82.42 629.32 87.86 634.75 93.15 640.43 98.39 646.39 103.55 652.69 108.53 659.29 113.43 666.19 118.25 673.43 122.88 680.96 127.43 688.76 131.92 696.84 136.23 705.14 140.49 713.61 144.74 722.25 148.83 730.96 152.93 739.68 157.05 748.39 161.06 756.98 165.12 765.36 169.26 773.5 173.33 781.28 177.49 788.6 181.77 795.46 186.02 801.71 190.4 807.26 194.91 814.22 201.78 822.73 216.31 824.12 224 824 229.22 822.99 234.6 821.12 240.13 818.68 245.7 815.53 251.42 811.77 257.29 807.72 263.19 803.29 269.22 798.6 275.38 794.02 281.57 789.46 287.87 785.07 294.27 781.2 300.69 777.76 307.21 774.89 313.81 772.87 320.42 771.6 327.11 771.16 333.86 771.76 340.61 773.24 347.43 775.62 354.29 778.99 361.15 783.16 368.05 788.03 375 793.63 381.94 799.62 388.84 805.82 395.69 812.3 402.55 818.66 409.36 824.74 416.13 830.6 422.91 835.86 429.65 840.4 436.37 844.31 443.11 847.27 449.83 849.21 456.54 850.28 463.29 850.23 470.04 849.08 476.82 846.99 483.65 843.83 490.53 839.65 497.45 834.68 504.46 828.84 511.54 822.24 518.71 815.1 525.97 807.41 533.35 799.3 540.84 790.97 548.44 782.44 556.18 773.84 564.05 765.33 572.04 756.94 580.17 748.77 588.43 740.94 596.79 733.46 605.27 726.39 613.84 719.83 622.47 713.74 631.16 708.13 639.88 703.1 648.58 698.54 657.25 694.45 665.83 690.9 674.28 687.76 682.56 684.97 690.61 682.63 698.41 680.56 705.88 678.69 712.94 676.42 722.71 672.45 738.79 670.43 744.84 660.73 752.64 646.06 749.31 640.24 746.52 633.83 743.98 619.17 740.69 611 740.63 605.33 741.6 599.4 743.3 593.25 745.79 587 749.25 580.54 753.53 573.91 758.64 567.19 764.63 560.33 771.32 553.34 778.61 546.3 786.47 539.15 794.67 531.91 803.02 524.64 811.44 517.3 819.64 509.9 827.43 502.48 834.71 495.03 841.2 487.54 846.69 480.04 851.2 472.52 854.44 464.99 856.32 457.45 856.96 449.91 856.15 442.36 853.92 434.81 850.53 427.25 845.89 419.7 840.12 412.14 833.64 404.68 826.51 397.3 818.97 389.91 811.39 382.61 803.87 375.39 796.62 368.15 789.97 361 783.96 353.92 778.75 346.82 774.58 339.78 771.37 332.82 769.18 325.83 768.15 318.89 768.09 312.02 768.93 305.11 770.76 298.25 773.28 291.44 776.33 284.6 779.97 277.79 783.83 271.03 787.73 264.23 791.73 257.47 795.43 250.74 798.7 243.98 801.61 237.25 803.81 230.56 805.22 223.84 805.94 217.16 805.71 210.53 804.52 203.87 802.5 197.26 799.5 190.71 795.55 184.16 790.83 177.66 785.25 171.25 778.9 164.84 771.95 158.53 764.4 152.31 756.35 146.12 747.95 140.05 739.24 134.11 730.32 128.21 721.32 122.46 712.28 116.86 703.29 111.33 694.43 105.96 685.75 100.76 677.3 95.65 669.13 90.72 661.27 85.98 653.73 81.32 646.56 76.85 639.72 72.58 633.22 68.38 627.1 64.37 621.29 60.54 615.76 54.98 608.11 44.76 594.22 40.06 587.79 35.52 581.73 27.03 569.8 23.06 563.77 19.14 557.73 11.76 544.96 8.31 538.15 4.91 531.13 -1.31 516.03 -4.09 507.95 -5.91 502.46 -7.57 496.76 -9.06 490.86 -10.55 484.94 -11.87 478.82 -13 472.51 -14.12 466.19 -15.06 459.68 -15.81 452.99 -16.54 446.3 -17.1 439.44 -17.47 432.41 -17.83 425.38 -18.01 418.2 -18.02 410.87 -18.02 403.54 -17.85 396.15 -17.51 388.71 -17.17 381.28 -16.66 373.8 -15.98 366.28 -15.3 358.77 -14.45 351.23 -13.43 343.66 -12.39 336.09 -11.17 328.5 -9.77 320.9 -8.35 313.3 -6.74 305.69 -4.94 298.07 -3.11 290.48 -1.1 282.88 1.08 275.29 3.3 267.73 5.7 260.19 8.27 252.68 10.85 245.21 13.58 237.79 16.46 230.43 19.33 223.13 22.34 215.91 25.46 208.79 28.54 201.75 31.74 194.83 35.02 188.04 38.25 181.36 41.57 174.84 44.96 168.51 48.28 162.3 51.68 156.29 55.15 150.5 58.54 144.86 62.01 139.46 65.56 134.3 70.84 126.93 81.78 113.69 87.48 107.83 93.29 102.37 105.6 92.68 112.12 88.35 118.88 84.14 133.28 76.11 140.95 72.12 146.19 69.31 151.6 66.47 157.17 63.59 162.82 60.48 168.63 57.29 174.58 54.01 180.62 50.49 186.79 46.86 193.1 43.14 199.48 39.2 205.98 35.19 212.6 31.12 219.27 26.89 226.05 22.67 232.92 18.48 239.84 14.23 246.84 10.08 253.91 6.1 261.02 2.17 268.19 -1.52 275.41 -4.94 282.67 -8.18 289.96 -11.08 297.29 -13.6 304.65 -15.87 312.03 -17.72 319.43 -19.14 326.85 -20.27 334.28 -20.98 341.72 -21.26 349.17 -21.3 356.62 -20.97 364.07 -20.29 371.52 -19.48 378.96 -18.4 386.38 -17.1 393.81 -15.82 401.2 -14.41 408.57 -12.92" stroke-dasharray="7 9" transform="rotate(16.16, 400, 400)" opacity="0.12"></path><path d="M399.51 6.46C406.38 7.82 413.13 9.15 419.75 10.42 426.36 11.44 432.83 12.36 439.15 13.16 445.46 13.69 451.63 14.11 457.63 14.43 466.54 14.53 483.54 14.37 491.62 14.32 499.51 14.35 514.5 15.53 521.62 16.88 528.61 18.83 542.03 24.88 548.53 29.02 552.9 32.16 557.22 35.65 561.5 39.49 565.89 43.54 570.29 47.89 574.71 52.52 579.28 57.3 583.93 62.3 588.67 67.49 593.61 72.74 598.69 78.12 603.92 83.6 609.41 89.06 615.08 94.57 620.97 100.1 627.12 105.54 633.51 110.96 640.13 116.35 647.03 121.59 654.16 126.78 661.5 131.91 669.09 136.86 676.87 141.75 684.8 146.57 692.89 151.21 701.08 155.8 709.31 160.33 717.57 164.71 725.77 169.05 733.86 173.38 741.82 177.57 749.53 181.77 756.93 185.99 764.02 190.11 770.66 194.27 776.78 198.49 782.42 202.64 787.42 206.88 791.72 211.2 796.88 217.68 802.22 231.19 802.36 238.25 800.8 245.45 793.52 260.56 788.21 268.46 784.35 273.79 780.23 279.26 775.96 284.85 771.87 290.46 767.86 296.19 764.07 302.05 760.79 307.91 757.94 313.89 755.63 319.97 754.1 326.07 753.25 332.26 753.14 338.56 753.96 344.85 755.57 351.24 757.94 357.72 761.2 364.2 765.15 370.77 769.71 377.42 774.92 384.08 780.47 390.74 786.21 397.41 792.22 404.08 798.13 410.76 803.81 417.46 809.34 424.17 814.36 430.89 818.77 437.64 822.66 444.41 825.74 451.22 827.94 458.06 829.38 464.94 829.85 471.87 829.33 478.86 827.98 485.9 825.64 493.01 822.37 500.19 818.35 507.44 813.49 514.77 807.88 522.2 801.71 529.69 794.95 537.28 787.7 544.97 780.15 552.73 772.3 560.58 764.26 568.52 756.18 576.51 748.08 584.58 740.06 592.7 732.24 600.83 724.62 608.99 717.27 617.15 710.3 625.27 703.67 633.33 697.42 641.31 691.64 649.16 686.27 656.87 681.29 664.36 676.81 671.65 672.7 678.66 668.95 685.33 665.63 691.69 662.62 697.64 659.86 703.14 649.25 722.21 639.68 729.91 636.54 729.24 629.07 725.93 614.89 720.54 609.05 719.72 602.76 720.23 588.67 725.26 580.92 730.1 575.58 734.4 570.02 739.41 564.27 745.1 558.43 751.49 552.42 758.41 546.24 765.76 540 773.5 533.62 781.41 527.11 789.33 520.56 797.2 513.89 804.75 507.13 811.82 500.34 818.35 493.47 824.08 486.52 828.86 479.56 832.7 472.54 835.38 465.46 836.81 458.37 837.12 451.23 836.13 444.06 833.86 436.88 830.57 429.66 826.16 422.4 820.74 415.15 814.67 407.94 808 400.79 800.95 393.64 793.82 386.53 786.7 379.48 779.78 372.43 773.34 365.42 767.43 358.46 762.17 351.49 757.8 344.57 754.26 337.69 751.59 330.8 749.97 323.95 749.21 317.13 749.3 310.3 750.31 303.51 752 296.75 754.26 289.97 757.15 283.23 760.36 276.52 763.73 269.79 767.33 263.09 770.82 256.44 774.05 249.76 777.11 243.13 779.67 236.54 781.63 229.94 783.1 223.38 783.81 216.88 783.7 210.39 782.93 203.95 781.28 197.59 778.78 191.24 775.56 184.97 771.52 178.79 766.7 172.64 761.27 166.6 755.16 160.67 748.47 154.79 741.34 149.03 733.76 143.41 725.83 137.86 717.66 132.45 709.28 127.21 700.78 122.04 692.24 117.04 683.71 112.21 675.23 107.46 666.89 102.9 658.69 98.52 650.69 94.22 642.92 90.1 635.39 86.17 628.12 82.31 621.13 78.62 614.41 75.11 607.94 71.65 601.77 68.36 595.84 65.22 590.13 60.63 582.05 52.14 567.01 48.2 559.91 44.34 553.11 37.07 539.72 33.65 533 30.24 526.31 23.85 512.46 20.87 505.22 17.95 497.85 12.68 482.29 10.37 474.08 8.86 468.55 7.51 462.84 6.32 456.95 5.12 451.06 4.09 445 3.24 438.76 2.39 432.52 1.71 426.12 1.21 419.55 0.73 412.98 0.42 406.25 0.29 399.37 0.18 392.49 0.26 385.54 0.52 378.54 0.79 371.54 1.25 364.5 1.89 357.41 2.55 350.32 3.4 343.21 4.44 336.06 5.5 328.93 6.75 321.78 8.18 314.62 9.65 307.48 11.3 300.34 13.13 293.21 15 286.11 17.05 279.02 19.26 271.97 21.5 264.97 23.91 258 26.47 251.1 29.04 244.26 31.75 237.49 34.59 230.81 37.42 224.21 40.37 217.71 43.42 211.35 46.44 205.07 49.55 198.94 52.75 192.97 55.88 187.11 59.09 181.43 62.37 175.94 65.58 170.58 68.85 165.42 72.18 160.48 77.1 153.37 87.16 140.47 92.32 134.67 97.48 129.24 108.22 119.47 113.84 115.06 119.57 110.79 131.7 102.68 138.14 98.71 144.79 94.56 158.92 85.85 166.42 81.2 171.53 77.86 176.79 74.42 182.2 70.88 187.67 67.12 193.29 63.28 199.04 59.35 204.85 55.24 210.8 51.09 216.85 46.92 222.97 42.63 229.2 38.38 235.52 34.2 241.9 30.01 248.37 25.97 254.92 22.11 261.51 18.35 268.17 14.84 274.88 11.63 281.64 8.61 288.44 5.95 295.29 3.67 302.16 1.65 309.07 0.04 316 -1.14 322.95 -2.06 329.92 -2.56 336.89 -2.67 343.88 -2.55 350.86 -2.08 357.84 -1.29 364.83 -0.38 371.8 0.77 378.75 2.13 385.7 3.48 392.62 4.93 399.5 6.45" stroke-dasharray="1 2" transform="rotate(20.200000000000003, 400, 400)" opacity="0.72"></path><path d="M390.52 25.84C396.93 27.24 403.22 28.6 409.4 29.9 415.57 30.96 421.62 31.92 427.55 32.78 436.36 33.59 453.33 34.35 461.49 34.41 469.51 34.21 484.94 33.98 492.37 34.16 499.72 34.62 514 37.02 520.99 39.11 528.02 41.85 542.08 49.47 549.2 54.33 554.07 57.9 559 61.79 564 65.97 569.16 70.34 574.42 74.95 579.81 79.8 585.38 84.75 591.09 89.88 596.97 95.16 603.05 100.47 609.31 105.88 615.74 111.36 622.39 116.82 629.22 122.3 636.22 127.79 643.41 133.19 650.75 138.57 658.22 143.92 665.83 149.14 673.52 154.32 681.26 159.44 689.04 164.41 696.8 169.33 704.5 174.19 712.12 178.9 719.57 183.57 726.81 188.19 733.83 192.68 740.52 197.15 746.83 201.6 752.78 205.93 758.24 210.27 763.16 214.62 769.5 221.03 778.08 233.97 780.18 240.56 780.72 247.16 777.64 260.78 774.24 267.85 771.48 272.57 768.3 277.42 764.77 282.39 761.18 287.35 757.43 292.43 753.62 297.64 750.04 302.85 746.59 308.18 743.38 313.63 740.67 319.08 738.38 324.66 736.58 330.36 735.5 336.06 735.03 341.88 735.21 347.81 736.22 353.75 737.91 359.8 740.27 365.98 743.4 372.15 747.13 378.44 751.39 384.85 756.23 391.26 761.35 397.71 766.65 404.21 772.2 410.72 777.67 417.27 782.96 423.87 788.14 430.48 792.91 437.14 797.15 443.86 800.98 450.6 804.12 457.4 806.49 464.26 808.24 471.15 809.13 478.1 809.14 485.12 808.44 492.18 806.85 499.31 804.4 506.51 801.27 513.75 797.34 521.06 792.68 528.43 787.47 535.84 781.65 543.31 775.32 550.83 768.62 558.37 761.55 565.94 754.2 573.54 746.71 581.12 739.1 588.7 731.43 596.25 723.84 603.75 716.33 611.18 708.95 618.51 701.82 625.73 694.91 632.8 688.28 639.68 681.99 646.38 676.02 652.85 670.37 659.02 665.13 664.94 660.22 670.52 655.63 675.72 649.48 682.82 639.08 694.21 634.66 698.38 622.37 703.89 610.67 702.35 606.97 700.87 598.63 699.21 583.76 701.51 577.92 704.68 573.87 707.71 569.58 711.35 565.08 715.62 560.5 720.59 555.71 726.14 550.71 732.2 545.65 738.81 540.4 745.79 534.96 753.03 529.48 760.52 523.82 768.03 518.01 775.44 512.17 782.7 506.18 789.57 500.06 795.91 493.91 801.69 487.65 806.7 481.27 810.79 474.88 814.02 468.4 816.18 461.82 817.2 455.23 817.22 448.56 816.08 441.81 813.8 435.05 810.62 428.23 806.44 421.34 801.35 414.44 795.69 407.57 789.47 400.71 782.88 393.86 776.21 387.02 769.5 380.21 762.92 373.4 756.73 366.61 750.95 359.85 745.7 353.08 741.2 346.34 737.4 339.63 734.35 332.91 732.21 326.22 730.85 319.55 730.24 312.88 730.49 306.24 731.39 299.62 732.86 293 734.99 286.41 737.48 279.86 740.23 273.3 743.31 266.77 746.41 260.29 749.41 253.81 752.4 247.37 755.07 240.99 757.32 234.61 759.27 228.29 760.63 222.04 761.35 215.81 761.56 209.65 761.03 203.58 759.76 197.54 757.89 191.59 755.26 185.74 751.9 179.95 747.95 174.26 743.33 168.7 738.09 163.2 732.37 157.84 726.12 152.62 719.43 147.47 712.39 142.47 705.03 137.64 697.4 132.88 689.6 128.29 681.65 123.87 673.62 119.53 665.56 115.37 657.51 111.38 649.52 107.46 641.62 103.72 633.84 100.15 626.21 96.64 618.75 93.29 611.48 90.1 604.39 86.96 597.52 83.96 590.85 81.11 584.38 78.27 578.12 75.57 572.05 72.99 566.14 70.4 560.43 67.92 554.87 65.56 549.42 62 541.55 55.28 526.37 52.1 518.95 48.91 511.67 42.87 497.04 40.04 489.61 37.21 482.15 32.04 466.75 29.72 458.77 27.49 450.67 23.72 433.81 22.21 425.04 21.26 419.14 20.47 413.11 19.86 406.93 19.26 400.76 18.85 394.45 18.61 388.01 18.41 381.57 18.39 375.08 18.57 368.54 18.78 362.02 19.18 355.45 19.77 348.86 20.41 342.27 21.24 335.67 22.26 329.06 23.32 322.46 24.58 315.86 26.02 309.28 27.51 302.71 29.18 296.17 31.03 289.66 32.92 283.19 34.98 276.76 37.21 270.39 39.46 264.06 41.87 257.81 44.42 251.64 46.98 245.54 49.68 239.53 52.5 233.64 55.3 227.83 58.21 222.14 61.23 216.6 64.2 211.14 67.25 205.84 70.39 200.71 75.04 193.24 84.53 179.39 89.36 173.03 94.13 166.99 103.82 156.01 108.75 151.03 113.66 146.27 123.77 137.5 129.01 133.39 134.31 129.27 145.45 121.12 151.32 116.96 157.35 112.54 170.11 103.12 176.86 98.07 181.46 94.47 186.19 90.77 191.06 86.99 195.98 83.02 201.04 78.99 206.22 74.9 211.46 70.68 216.82 66.44 222.3 62.22 227.83 57.94 233.47 53.73 239.22 49.63 245.01 45.57 250.9 41.68 256.87 38 262.88 34.45 268.98 31.18 275.13 28.22 281.33 25.46 287.58 23.07 293.88 21.05 300.21 19.29 306.58 17.93 312.98 16.97 319.41 16.27 325.86 15.95 332.32 16.02 338.79 16.28 345.27 16.88 351.75 17.78 358.24 18.78 364.73 20 371.19 21.42 377.66 22.8 384.1 24.29 390.51 25.84" stroke-dasharray="6 0" transform="rotate(24.24, 400, 400)" opacity="0.87"></path><path d="M383.12 45.23C389.1 46.65 394.99 48.03 400.79 49.36 409.44 50.96 426.27 53.26 434.44 53.95 442.52 54.19 458.24 54.13 465.9 53.99 473.51 53.79 488.45 54 495.83 54.62 503.25 55.62 518.11 59.33 525.63 62.11 530.74 64.29 535.9 66.8 541.11 69.64 551.9 75.97 563.05 83.54 574.64 92.17 586.85 101.39 599.59 111.37 612.86 121.9 626.69 132.53 640.94 143.4 655.43 154.35 670.07 164.99 684.55 175.54 698.53 185.94 711.89 195.85 724.12 205.6 734.81 215.22 744.02 224.36 751.12 233.46 755.83 242.6 757.96 249.27 758.41 262.7 756.82 269.51 754.16 276.31 746.34 290.25 741.54 297.42 738.29 302.21 734.96 307.11 731.63 312.11 727.12 319.65 719.95 335.27 717.73 343.37 716.99 351.58 719.4 368.62 722.59 377.45 725.6 383.37 729.11 389.43 733.07 395.62 737.55 401.81 742.27 408.06 747.13 414.37 752.24 420.69 757.29 427.07 762.18 433.51 767.02 439.95 771.5 446.46 775.56 453.03 779.28 459.61 782.42 466.26 784.91 472.96 786.88 479.68 788.11 486.45 788.57 493.29 788.42 500.13 787.48 507.02 785.77 513.96 783.44 520.91 780.38 527.89 776.63 534.9 772.34 541.89 767.46 548.9 762.04 555.91 756.24 562.88 750.02 569.83 743.45 576.72 736.68 583.56 729.69 590.32 722.56 596.97 708.25 609.95 694.02 622.29 680.27 633.71 667.47 644.33 655.62 653.7 644.81 661.58 635.33 668.34 626.86 673.45 619.25 676.82 609.78 679.64 593.59 678.64 585.7 677.07 577.7 677.78 563.65 684.56 558.4 689.12 554.8 692.97 551.01 697.34 547.03 702.22 543 707.66 538.78 713.54 534.37 719.8 529.92 726.45 525.28 733.32 520.46 740.32 515.61 747.43 510.58 754.46 505.39 761.29 500.17 767.89 494.79 774.06 489.27 779.67 483.73 784.73 478.04 789.04 472.23 792.49 466.4 795.16 460.45 796.84 454.38 797.5 448.31 797.27 442.12 796.01 435.84 793.74 429.55 790.68 423.16 786.72 416.68 781.96 410.2 776.69 403.71 770.91 397.22 764.78 390.72 758.56 384.22 752.26 377.73 746.03 371.24 740.11 364.75 734.5 358.27 729.32 351.79 724.76 345.33 720.78 338.87 717.43 332.42 714.86 325.99 712.97 319.57 711.75 313.16 711.31 306.77 711.48 300.41 712.19 294.05 713.54 287.73 715.3 281.43 717.37 275.16 719.84 268.92 722.43 262.72 725.04 256.54 727.77 250.42 730.33 244.35 732.64 238.31 734.8 232.34 736.54 226.44 737.8 214.76 739.21 203.43 738.15 192.52 734.51 181.85 728.84 171.67 720.69 162.06 710.43 152.75 698.64 144.05 685.38 136 671.12 128.24 656.32 121.12 641.19 114.65 626.07 108.37 611.2 102.65 596.72 97.48 582.77 92.32 569.41 87.59 556.62 83.27 544.37 81.05 538.46 78.91 532.66 76.85 526.96 73.72 518.63 67.71 502.44 64.84 494.5 61.94 486.68 56.44 471.06 53.86 463.2 51.3 455.33 46.68 439.31 44.65 431.12 42.73 422.85 39.62 405.86 38.47 397.13 37.78 391.28 37.26 385.34 36.93 379.3 36.64 373.27 36.54 367.21 36.64 361.14 36.78 355.08 37.12 349.01 37.66 342.94 38.26 336.88 39.05 330.83 40.04 324.8 41.08 318.78 42.32 312.79 43.75 306.84 45.23 300.91 46.9 295.02 48.74 289.2 50.63 283.41 52.69 277.69 54.91 272.05 57.16 266.45 59.56 260.95 62.1 255.55 65.99 247.59 74.35 232.38 78.78 225.17 81.72 220.49 84.74 215.95 87.84 211.58 93.85 203.04 100.1 195.15 106.53 187.95 112.66 180.92 118.96 174.5 125.43 168.63 131.63 162.7 138.07 157.13 144.76 151.8 151.3 146.08 158.2 140.35 165.47 134.51 172.74 127.97 180.46 121.15 188.65 114.02 196.94 106.15 205.73 98.04 214.99 89.8 219.68 85.52 224.49 81.28 229.41 77.09 234.37 72.88 239.44 68.78 244.61 64.83 249.82 60.95 255.12 57.27 260.51 53.83 265.94 50.54 271.46 47.54 277.04 44.86 282.66 42.39 288.34 40.28 294.08 38.54 299.84 37.05 305.66 35.94 311.52 35.21 317.4 34.72 323.31 34.6 329.25 34.82 335.2 35.23 341.17 35.94 347.15 36.93 353.15 38 359.15 39.28 365.14 40.73 371.14 42.15 377.13 43.66 383.11 45.23" stroke-dasharray="4 7" transform="rotate(28.28, 400, 400)" opacity="0.85"></path><path d="M378.57 64.62C386.94 66.75 403.4 70.45 411.48 71.91 422.22 73.04 432.74 73.79 443.05 74.23 453.41 73.92 463.63 73.67 473.74 73.67 484 73.59 494.25 74.23 504.57 75.77 515.17 77.84 525.95 81.1 536.99 85.57 548.43 90.84 560.23 97.32 572.4 104.9 585.02 113.14 598.01 122.25 611.31 132.06 624.89 142.16 638.59 152.67 652.2 163.44 665.66 174.11 678.64 184.84 690.84 195.53 702.22 205.89 712.3 216.14 720.76 226.28 727.79 236.03 732.84 245.69 735.71 255.32 736.99 264.6 736.17 273.94 733.39 283.38 729.62 292.59 724.54 302 718.61 311.67 713.02 321.2 707.63 331.05 702.97 341.28 700.14 351.43 698.91 361.99 699.58 373 700.86 378.49 702.64 384.1 704.92 389.83 707.78 395.55 711.08 401.39 714.75 407.36 718.88 413.33 723.21 419.35 727.67 425.43 732.34 431.51 736.98 437.64 741.49 443.82 750.35 456.19 757.76 468.77 763.22 481.49 766.99 494.21 768.12 507.04 766.52 519.89 762.75 532.68 756.41 545.38 747.8 557.88 737.65 570.12 725.93 581.97 713.14 593.23 699.91 603.99 686.38 613.92 672.94 622.8 660.04 630.92 647.72 637.8 636.14 643.29 625.58 647.93 615.86 651.19 606.93 653.11 599.01 654.5 591.69 654.91 584.83 654.61 578.67 654.61 572.66 654.62 566.64 655.07 560.97 656.92 555.04 659.95 548.72 664.5 542.48 671.18 535.7 679.6 528.34 689.71 520.91 701.52 512.85 714.32 504.16 727.5 495.36 740.69 485.95 752.83 475.94 763.1 465.86 771.24 455.23 776.26 444.1 777.71 438.52 777.27 432.81 775.92 427 773.67 421.18 770.74 415.25 767.01 409.22 762.57 403.19 757.68 397.13 752.33 391.04 746.65 384.96 740.86 378.86 734.97 372.75 729.11 360.55 718.19 348.32 708.56 336.11 700.79 323.94 695.68 311.82 692.89 299.79 692.26 287.84 694.06 276.02 697.23 264.4 701.17 252.9 705.93 241.64 710.22 230.69 713.45 219.94 715.85 209.55 716.35 199.62 714.74 189.93 711.47 180.74 705.96 172.11 698.4 163.76 689.32 155.98 678.58 148.82 666.56 141.9 653.69 135.55 640.09 129.8 626.09 124.16 611.93 119.02 597.78 114.35 583.83 109.64 570.16 105.3 556.84 101.31 543.94 97.11 531.45 93.16 519.33 89.48 507.56 85.51 496.14 81.77 484.93 78.29 473.88 74.56 463.03 71.13 452.22 68.07 441.37 64.86 430.62 62.11 419.75 59.89 408.73 58.31 400.45 55.97 383.68 55.25 375.18 54.79 366.66 54.94 349.77 55.56 341.41 56.71 330.3 58.66 319.37 61.38 308.68 64.35 298.07 68.03 287.76 72.38 277.84 76.86 268.03 81.91 258.67 87.44 249.82 92.94 241.13 98.82 232.97 105 225.4 110.98 217.95 117.17 211.05 123.54 204.68 129.61 198.32 135.83 192.37 142.19 186.79 148.25 180.96 154.49 175.31 160.94 169.73 167.16 163.64 173.67 157.43 180.48 151.02 187.19 143.93 194.28 136.58 201.76 128.96 209.25 120.75 217.18 112.41 225.53 104.09 233.97 95.58 242.83 87.43 252.09 79.88 261.46 72.72 271.2 66.56 281.26 61.61 291.41 57.52 301.84 54.83 312.5 53.6 323.22 53.23 334.12 54.13 345.15 56.15 353.45 57.94 370.16 62.28 378.56 64.62" stroke-dasharray="5 7" transform="rotate(32.32, 400, 400)" opacity="0.49"></path><path d="M377.61 84.01C388.17 86.71 398.63 89.23 408.98 91.42 419.35 92.69 429.64 93.58 439.87 94.15 450.17 93.98 460.46 93.77 470.77 93.72 481.23 93.47 491.8 93.79 502.51 94.83 513.46 96.25 524.64 98.69 536.06 102.22 547.78 106.44 559.78 111.8 572.04 118.25 584.54 125.37 597.23 133.43 609.98 142.28 622.77 151.55 635.41 161.38 647.7 171.62 659.61 181.97 670.8 192.52 681.02 203.17 690.34 213.67 698.3 224.17 704.67 234.61 709.74 244.79 713.01 254.9 714.39 264.95 714.5 274.72 712.9 284.49 709.75 294.28 705.98 303.86 701.27 313.54 696.02 323.36 691.3 333.04 686.9 342.94 683.25 353.09 681.3 363.17 680.76 373.55 681.86 384.27 685.15 394.97 690.08 406.03 696.43 417.47 704.34 428.91 712.67 440.48 720.87 452.13 729.07 463.78 736.08 475.5 741.45 487.22 745.49 498.9 747.26 510.53 746.68 522 744.24 533.33 739.45 544.39 732.55 555.04 724.16 565.4 714.14 575.18 702.9 584.23 691.01 592.8 678.52 600.47 665.8 607.11 653.26 613.13 640.96 618.04 629.1 621.78 617.93 625 607.39 627.19 597.49 628.45 588.42 629.61 579.92 630.25 571.92 630.65 564.6 631.71 557.56 633.13 550.69 635.25 544.24 638.84 537.74 643.63 531.07 649.83 524.6 657.83 517.81 667.24 510.62 677.89 503.46 689.75 495.83 702.14 487.7 714.49 479.54 726.51 470.85 737.3 461.63 746.18 452.38 753.04 442.61 757.04 432.37 757.84 422.09 755.97 411.36 750.97 400.21 743.18 389.05 733.84 377.77 723.21 366.41 712.15 355.09 701.78 343.72 692.36 332.37 684.41 321.08 678.69 309.84 674.93 298.72 673.09 287.68 673.48 276.8 675.27 266.14 677.99 255.62 681.78 245.37 685.53 235.46 688.71 225.74 691.56 216.41 693.05 207.53 692.92 198.88 691.57 190.71 688.31 183.08 683.19 175.68 676.71 168.82 668.57 162.51 659 156.38 648.46 150.76 636.91 145.64 624.65 140.58 611.94 135.95 598.89 131.71 585.72 127.38 572.54 123.35 559.45 119.6 546.58 115.62 533.9 111.84 521.49 108.28 509.38 104.42 497.51 100.75 485.88 97.3 474.49 93.59 463.27 90.15 452.2 87.04 441.25 83.78 430.39 80.94 419.58 78.6 408.81 76.29 398.06 74.59 387.3 73.57 376.55 72.75 365.79 72.72 355.28 73.47 345.05 74.51 334.82 76.34 324.89 78.94 315.3 81.81 305.75 85.39 296.57 89.63 287.82 94.02 279.12 98.98 270.88 104.42 263.11 109.86 255.41 115.68 248.18 121.79 241.42 127.74 234.66 133.91 228.31 140.24 222.35 146.3 216.23 152.5 210.36 158.81 204.69 164.82 198.65 170.97 192.65 177.27 186.59 183.33 179.99 189.59 173.22 196.08 166.23 202.42 158.64 209.06 150.84 216 142.87 222.89 134.47 230.15 126.09 237.76 117.87 245.39 109.64 253.4 101.9 261.78 94.87 270.2 88.33 278.98 82.82 288.1 78.52 297.26 75.06 306.73 72.92 316.46 72.15 326.22 72.14 336.23 73.29 346.44 75.45 356.65 77.83 367.05 80.76 377.61 84" stroke-dasharray="7 8" transform="rotate(36.36, 400, 400)" opacity="0.42"></path><path d="M380.43 103.39C390.43 106.1 400.45 108.64 410.47 110.9 420.52 112.29 430.61 113.33 440.73 114.06 450.93 114.05 461.21 113.95 471.59 113.91 482.1 113.59 492.77 113.68 503.6 114.34 514.6 115.23 525.81 116.97 537.19 119.64 548.75 122.88 560.48 127.16 572.3 132.46 584.19 138.39 596.07 145.27 607.8 152.98 619.37 161.19 630.57 170.07 641.22 179.47 651.35 189.13 660.62 199.14 668.83 209.38 676.15 219.65 682.14 230.02 686.64 240.44 690.04 250.74 691.87 261.02 692.1 271.27 691.4 281.35 689.34 291.4 686.09 301.44 682.53 311.32 678.34 321.23 673.85 331.19 670.01 341.04 666.56 351.01 663.85 361.11 662.68 371.14 662.75 381.37 664.2 391.8 667.54 402.2 672.23 412.84 678.11 423.71 685.33 434.57 692.89 445.42 700.35 456.2 707.88 466.97 714.43 477.65 719.64 488.17 723.81 498.63 726.07 508.86 726.32 518.77 725 528.53 721.61 537.85 716.28 546.64 709.56 555.15 701.24 563 691.63 570.08 681.24 576.77 670.06 582.61 658.38 587.52 646.61 592.04 634.78 595.65 623.1 598.39 611.82 600.92 600.92 602.78 590.47 604.11 580.64 605.68 571.29 607.12 562.38 608.66 554.06 611.06 546.08 614.04 538.35 617.84 531.06 623.02 523.86 629.32 516.65 636.81 509.71 645.75 502.62 655.74 495.31 666.55 488.12 678.11 480.61 689.81 472.75 701.15 464.92 711.93 456.69 721.37 448.05 728.91 439.39 734.59 430.31 737.66 420.83 737.9 411.33 735.83 401.43 731.04 391.16 723.8 380.89 715.2 370.51 705.41 360.08 695.14 349.68 685.36 339.27 676.24 328.89 668.26 318.57 662.1 308.32 657.57 298.22 654.67 288.21 653.78 278.38 654.23 268.79 655.68 259.34 658.35 250.18 661.26 241.37 664.01 232.73 666.84 224.48 668.78 216.67 669.57 209.05 669.57 201.89 668.05 195.22 664.96 188.72 660.77 182.69 655.03 177.16 647.89 171.73 639.79 166.74 630.55 162.18 620.4 157.6 609.64 153.37 598.28 149.48 586.53 145.43 574.54 141.63 562.39 138.05 550.22 134.22 538.05 130.55 525.98 127.05 514.09 123.26 502.3 119.62 490.71 116.17 479.34 112.47 468.08 109.01 457.01 105.85 446.14 102.56 435.33 99.66 424.68 97.23 414.17 94.84 403.7 93.04 393.34 91.89 383.11 90.96 372.88 90.8 363.01 91.4 353.51 92.31 344.01 94 334.88 96.44 326.15 99.17 317.41 102.6 309.08 106.68 301.18 110.94 293.27 115.76 285.77 121.07 278.7 126.4 271.59 132.12 264.87 138.15 258.51 144.06 252.02 150.19 245.82 156.49 239.86 162.56 233.64 168.75 227.54 175.06 221.49 181.08 215.05 187.22 208.53 193.47 201.91 199.46 194.78 205.61 187.47 211.93 179.98 218.05 172.02 224.41 163.94 231.01 155.81 237.49 147.43 244.26 139.2 251.34 131.28 258.37 123.5 265.73 116.32 273.42 109.91 281.1 104.07 289.12 99.27 297.47 95.64 305.81 92.81 314.48 91.21 323.43 90.87 332.4 91.19 341.64 92.55 351.15 94.82 360.65 97.25 370.41 100.18 380.42 103.39" stroke-dasharray="8 0" transform="rotate(40.400000000000006, 400, 400)" opacity="0.73"></path><path d="M386.53 122.78C396.05 125.47 405.66 128.02 415.35 130.32 425.07 131.84 434.89 133.03 444.81 133.93 454.79 134.1 464.9 134.16 475.13 134.21 485.46 133.9 495.93 133.87 506.54 134.27 517.24 134.76 528.08 135.93 539 137.88 549.97 140.24 560.97 143.52 571.9 147.71 582.77 152.46 593.45 158.12 603.8 164.6 613.86 171.6 623.4 179.31 632.25 187.63 640.53 196.3 647.91 205.42 654.2 214.91 659.7 224.54 663.96 234.41 666.89 244.42 668.94 254.45 669.68 264.54 669.12 274.66 667.92 284.71 665.68 294.77 662.57 304.8 659.4 314.75 655.83 324.7 652.15 334.65 649.17 344.53 646.62 354.44 644.76 364.38 644.28 374.29 644.86 384.27 646.6 394.32 649.93 404.36 654.38 414.49 659.79 424.69 666.35 434.89 673.18 444.92 679.91 454.75 686.78 464.55 692.85 474.11 697.82 483.38 702 492.57 704.6 501.41 705.49 509.81 705.11 518.07 702.91 525.81 698.99 532.97 693.82 539.91 687.14 546.19 679.16 551.75 670.36 557.07 660.63 561.65 650.25 565.5 639.57 569.17 628.59 572.2 617.51 574.65 606.58 577.17 595.79 579.33 585.24 581.31 575.1 583.74 565.29 586.31 555.82 589.23 546.82 593.06 538.13 597.55 529.7 602.86 521.67 609.37 513.8 616.83 506.04 625.22 498.55 634.68 491.05 644.84 483.48 655.44 476.06 666.42 468.47 677.22 460.69 687.42 452.97 696.91 444.99 705 436.73 711.29 428.48 715.88 419.93 718.13 411.08 717.89 402.21 715.69 393.05 711.12 383.6 704.41 374.14 696.53 364.64 687.57 355.15 678.08 345.67 668.92 336.22 660.2 326.85 652.31 317.53 645.88 308.32 640.75 299.29 636.99 290.34 634.97 281.59 634.18 273.11 634.39 264.74 635.84 256.67 637.74 248.95 639.76 241.36 642.16 234.15 644.08 227.35 645.25 220.69 646.04 214.44 645.69 208.63 644.12 202.93 641.74 197.64 638.04 192.77 633.07 187.92 627.26 183.45 620.31 179.32 612.38 175.12 603.8 171.2 594.47 167.54 584.54 163.7 574.24 160.04 563.57 156.56 552.67 152.81 541.62 149.2 530.48 145.72 519.36 141.95 508.22 138.33 497.17 134.87 486.26 131.17 475.38 127.7 464.66 124.5 454.13 121.2 443.64 118.26 433.32 115.77 423.19 113.34 413.08 111.46 403.15 110.21 393.41 109.18 383.67 108.9 374.33 109.36 365.41 110.12 356.47 111.65 347.92 113.9 339.78 116.45 331.6 119.69 323.82 123.56 316.41 127.63 308.95 132.27 301.85 137.38 295.08 142.57 288.21 148.14 281.61 154.04 275.27 159.86 268.74 165.92 262.37 172.17 256.12 178.23 249.58 184.43 243.05 190.74 236.5 196.8 229.57 202.96 222.53 209.22 215.37 215.23 207.79 221.35 200.08 227.61 192.27 233.65 184.13 239.87 175.99 246.28 167.92 252.53 159.78 259.02 151.91 265.75 144.48 272.38 137.3 279.3 130.8 286.5 125.13 293.65 120.04 301.1 115.97 308.86 113.02 316.59 110.8 324.63 109.72 332.97 109.76 341.3 110.38 349.93 111.92 358.86 114.27 367.78 116.72 377 119.62 386.52 122.78" stroke-dasharray="5 10" transform="rotate(44.44, 400, 400)" opacity="0.44"></path><path d="M394.9 142.17C403.97 144.82 413.16 147.37 422.46 149.7 431.78 151.32 441.23 152.66 450.79 153.73 460.38 154.12 470.11 154.36 479.93 154.54 489.8 154.33 499.78 154.29 509.81 154.55 519.88 154.77 529.97 155.52 540.04 156.89 550.06 158.53 559.98 160.94 569.7 164.14 579.24 167.78 588.46 172.25 597.23 177.5 605.65 183.22 613.45 189.66 620.51 196.74 627.02 204.2 632.64 212.19 637.24 220.62 641.16 229.29 644 238.29 645.7 247.53 646.76 256.88 646.74 266.4 645.72 276.01 644.31 285.65 642.13 295.34 639.35 305.05 636.69 314.74 633.81 324.43 630.95 334.1 628.8 343.75 627.08 353.38 625.98 362.98 626.1 372.57 627.1 382.15 629.04 391.69 632.33 401.23 636.52 410.74 641.47 420.2 647.4 429.66 653.53 438.84 659.57 447.69 665.78 456.52 671.34 465.01 676.01 473.1 680.1 481.14 682.89 488.74 684.27 495.86 684.62 502.87 683.43 509.36 680.72 515.29 676.95 521.08 671.78 526.3 665.37 530.91 658.16 535.43 649.97 539.39 641.02 542.83 631.65 546.28 621.8 549.35 611.67 552.1 601.48 555.12 591.23 558.04 581.03 561.01 571.03 564.55 561.19 568.4 551.58 572.69 542.28 577.85 533.21 583.66 524.38 590.17 515.85 597.66 507.51 605.87 499.32 614.73 491.37 624.31 483.49 634.26 475.65 644.34 467.96 654.49 460.23 664.24 452.43 673.21 444.71 681.4 436.85 688.2 428.85 693.32 420.88 696.92 412.72 698.45 404.38 697.82 396.04 695.53 387.51 691.2 378.79 685.02 370.07 677.85 361.39 669.67 352.77 660.97 344.17 652.46 335.65 644.2 327.26 636.51 318.9 629.97 310.7 624.43 302.71 620 294.77 617.04 287.06 615.15 279.63 614.19 272.28 614.43 265.22 615.22 258.51 616.32 251.88 618 245.6 619.5 239.69 620.61 231.13 621.79 215.92 619.11 209.22 614.8 204.83 610.93 200.74 606.02 196.93 600.16 192.99 593.72 189.27 586.46 185.76 578.51 182.03 570.15 178.45 561.27 175.01 552 171.3 542.49 167.7 532.72 164.21 522.81 160.45 512.8 156.82 502.73 153.35 492.68 149.66 482.61 146.19 472.6 142.99 462.7 139.69 452.81 136.75 443.05 134.23 433.44 131.78 423.85 129.85 414.42 128.53 405.17 127.43 395.91 127.03 387.05 127.35 378.56 127.96 370.06 129.3 361.92 131.34 354.13 133.68 346.3 136.68 338.79 140.3 331.6 144.14 324.32 148.53 317.32 153.39 310.55 158.37 303.65 163.74 296.93 169.44 290.36 175.12 283.57 181.06 276.87 187.21 270.2 193.22 263.24 199.38 256.26 205.67 249.22 211.76 241.86 217.94 234.4 224.22 226.86 230.28 219.03 236.43 211.13 242.69 203.23 248.74 195.16 254.92 187.2 261.25 179.45 267.41 171.75 273.75 164.45 280.29 157.66 286.71 151.22 293.36 145.5 300.24 140.61 307.05 136.31 314.12 132.99 321.46 130.7 328.75 129.06 336.33 128.46 344.2 128.85 352.04 129.72 360.19 131.4 368.64 133.79 377.07 136.24 385.82 139.08 394.89 142.17" stroke-dasharray="4 4" transform="rotate(48.48, 400, 400)" opacity="0.39"></path><path d="M404.12 161.56C412.73 164.16 421.46 166.67 430.27 169.02 439.1 170.73 448.04 172.21 457.06 173.44 466.09 174.05 475.21 174.5 484.37 174.87 493.54 174.81 502.73 174.84 511.9 175.07 521.05 175.16 530.12 175.65 539.05 176.6 547.88 177.69 556.48 179.4 564.78 181.76 572.86 184.44 580.52 187.84 587.66 191.93 594.44 196.41 600.58 201.58 605.98 207.36 610.91 213.52 615.01 220.22 618.2 227.41 620.87 234.87 622.63 242.73 623.45 250.9 623.84 259.25 623.4 267.84 622.19 276.6 620.81 285.45 618.9 294.42 616.59 303.45 614.51 312.53 612.34 321.63 610.28 330.72 608.9 339.84 607.93 348.92 607.49 357.96 608.1 367 609.44 375.98 611.53 384.87 614.73 393.77 618.65 402.57 623.15 411.24 628.48 419.91 633.94 428.23 639.32 436.18 644.88 444.11 649.93 451.65 654.25 458.77 658.16 465.85 661.02 472.49 662.72 478.66 663.44 487.61 657.07 503.08 650.21 509.64 644.51 513.9 637.85 517.79 630.39 521.36 622.45 525.09 613.93 528.65 604.99 532.1 595.85 535.92 586.49 539.83 577 543.92 567.56 548.6 558.13 553.65 548.78 559.14 539.59 565.38 530.54 572.16 521.65 579.5 512.97 587.54 504.44 596.08 496.06 604.98 487.86 614.31 479.77 623.73 471.78 633.02 463.92 642.17 456.09 650.75 448.28 658.46 440.56 665.37 432.8 670.96 425.01 675 417.25 677.72 409.42 678.64 401.51 677.69 393.61 675.36 385.62 671.29 377.55 665.63 369.48 659.13 361.53 651.73 353.7 643.8 345.88 635.96 338.21 628.21 330.71 620.84 323.24 614.33 315.95 608.56 308.89 603.65 301.87 599.96 295.09 597.15 288.59 595.16 279.04 594.1 261.53 595.2 253.61 596.27 246.03 597.32 232.42 596.33 226.31 593.73 220.32 589.66 209.2 576.6 203.95 567.85 200.28 561.41 196.72 554.37 193.27 546.85 189.56 539.06 185.95 530.9 182.45 522.46 178.69 513.87 175.06 505.09 171.59 496.2 167.93 487.24 164.48 478.22 161.29 469.21 158.04 460.18 155.12 451.19 152.61 442.27 150.16 433.35 148.22 424.51 146.85 415.78 145.69 407.05 145.19 398.63 145.37 390.51 145.83 382.38 146.98 374.53 148.79 366.95 150.89 359.33 153.62 351.94 156.94 344.78 160.5 337.53 164.59 330.46 169.15 323.54 173.84 316.48 178.94 309.52 184.39 302.63 189.85 295.56 195.6 288.5 201.56 281.44 207.46 274.15 213.52 266.81 219.72 259.44 225.78 251.83 231.95 244.17 238.22 236.5 244.3 228.66 250.48 220.85 256.75 213.14 262.83 205.4 269.03 197.87 275.33 190.66 281.48 183.61 287.77 177.03 294.21 171.03 300.53 165.43 307.03 160.54 313.72 156.48 320.32 152.98 327.15 150.37 334.2 148.71 341.19 147.62 348.44 147.43 355.94 148.13 363.41 149.2 371.16 150.99 379.18 153.38 387.19 155.8 395.5 158.57 404.11 161.55" stroke-dasharray="9 9" transform="rotate(52.52, 400, 400)" opacity="0.42"></path><path d="M412.65 180.94C420.76 183.47 428.94 185.94 437.17 188.28 445.4 190.07 453.69 191.66 462 193.05 470.31 193.87 478.63 194.55 486.92 195.12 495.19 195.27 503.4 195.45 511.49 195.74 519.53 195.83 527.4 196.19 535.04 196.88 542.55 197.61 549.76 198.8 556.59 200.51 563.19 202.42 569.34 204.92 574.94 208 580.23 211.38 584.9 215.37 588.88 219.92 592.49 224.78 595.37 230.18 597.49 236.06 599.24 242.21 600.25 248.78 600.53 255.7 600.56 262.83 599.97 270.25 598.82 277.89 597.66 285.67 596.14 293.63 594.38 301.7 592.93 309.85 591.48 318.07 590.16 326.32 589.48 334.62 589.15 342.91 589.28 351.16 590.29 359.44 591.88 367.65 594.05 375.77 597.14 383.9 600.76 391.92 604.83 399.79 609.59 407.65 614.42 415.17 619.16 422.33 624.1 429.48 628.62 436.25 632.55 442.64 637.64 452.01 642.33 468.8 641.57 476.27 640 481.16 637.35 485.73 633.69 490.03 629.37 494.44 624.16 498.65 618.16 502.71 611.68 507.01 604.57 511.29 596.95 515.62 589.07 520.32 580.84 525.21 572.37 530.34 563.81 536 555.14 541.99 546.42 548.38 537.75 555.33 529.1 562.68 520.51 570.4 512.05 578.58 503.67 587.02 495.4 595.6 487.25 604.34 479.2 612.97 471.25 621.28 463.41 629.3 455.63 636.66 447.93 643.12 440.3 648.8 432.7 653.27 425.14 656.35 417.61 658.3 410.09 658.7 402.58 657.51 395.09 655.19 387.59 651.4 380.09 646.25 372.59 640.39 365.27 633.73 358.14 626.56 351.01 619.41 344.08 612.23 337.35 605.25 330.63 598.91 324.13 593.09 317.87 587.89 311.61 583.66 305.61 580.13 299.87 577.29 291.41 574.71 275.88 572.87 268.81 572.84 261.96 573.22 249.46 572.48 243.72 570.8 238 568.18 227.15 559.1 221.92 552.69 218.26 547.91 214.69 542.54 211.21 536.65 207.5 530.54 203.88 523.98 200.36 517.05 196.63 509.98 193.02 502.6 189.56 495 185.96 487.32 182.56 479.47 179.42 471.5 176.24 463.5 173.37 455.42 170.9 447.31 168.5 439.18 166.57 431.04 165.17 422.9 163.97 414.76 163.39 406.81 163.43 399.06 163.74 391.3 164.69 383.71 166.26 376.3 168.1 368.85 170.54 361.55 173.53 354.38 176.76 347.13 180.5 339.98 184.7 332.9 189.06 325.72 193.82 318.57 198.92 311.45 204.09 304.18 209.56 296.91 215.26 289.64 220.94 282.2 226.82 274.75 232.85 267.29 238.8 259.7 244.87 252.13 251.05 244.62 257.1 237.06 263.25 229.63 269.48 222.39 275.57 215.23 281.75 208.36 288.03 201.88 294.18 195.65 300.43 189.93 306.81 184.8 313.07 180.09 319.48 176.07 326.03 172.83 332.5 170.09 339.15 168.17 345.98 167.09 352.75 166.48 359.72 166.66 366.91 167.6 374.07 168.84 381.45 170.68 389.07 173.04 396.68 175.4 404.54 178.07 412.64 180.94" stroke-dasharray="2 10" transform="rotate(56.56, 400, 400)" opacity="0.93"></path><path d="M419.06 200.33C426.6 202.76 434.15 205.17 441.69 207.48 449.22 209.32 456.74 211.01 464.22 212.53 471.68 213.56 479.07 214.45 486.36 215.24 493.62 215.63 500.73 216.01 507.66 216.44 514.51 216.63 521.13 216.99 527.47 217.59 536.59 218.56 552.6 222.51 559.27 225.7 565.02 229.66 573.22 240.41 575.6 247.14 577.04 254.64 577.02 271.81 575.86 281.29 575.05 287.83 574.02 294.6 572.85 301.53 572.02 308.55 571.23 315.7 570.59 322.93 570.52 330.21 570.75 337.53 571.34 344.85 572.65 352.21 574.41 359.54 576.6 366.81 579.54 374.09 582.86 381.29 586.52 388.38 590.72 395.46 594.96 402.26 599.1 408.76 603.44 415.25 607.43 421.45 610.96 427.34 615.67 436.03 620.8 452.06 620.89 459.48 619.26 466.81 610.8 480.96 604.2 488.02 599.12 492.96 593.41 497.98 587.17 503.11 580.63 508.59 573.67 514.27 566.4 520.18 558.97 526.49 551.31 533.08 543.51 539.94 535.67 547.19 527.75 554.68 519.81 562.35 511.9 570.28 504 578.26 496.16 586.19 488.37 594.1 480.65 601.73 473 608.93 465.42 615.76 457.91 621.89 450.47 627.15 443.09 631.69 435.78 635.14 428.53 637.37 421.32 638.66 414.16 638.64 407.06 637.28 399.98 635.02 392.95 631.51 385.97 626.86 379 621.63 372.25 615.68 365.72 609.26 359.18 602.8 352.86 596.23 346.78 589.72 340.68 583.67 334.82 577.94 329.19 572.65 323.56 568.09 318.16 564.05 313.01 560.55 305.39 556.71 291.3 552.08 284.81 550.8 278.46 550.18 266.65 548.58 261.11 547.1 255.53 545.15 244.75 538.56 239.49 533.82 234.03 528.27 223.21 514.44 217.89 506.31 214.21 500.64 210.65 494.61 207.25 488.27 203.74 481.86 200.43 475.2 197.37 468.32 194.29 461.4 191.52 454.3 189.11 447.06 186.79 439.81 184.89 432.43 183.49 424.95 182.27 417.46 181.62 410.05 181.55 402.73 181.71 395.4 182.46 388.14 183.78 380.96 185.35 373.76 187.47 366.61 190.11 359.52 192.98 352.38 196.33 345.26 200.13 338.18 204.08 331.02 208.44 323.87 213.14 316.73 217.93 309.5 223.02 302.27 228.37 295.05 233.74 287.76 239.32 280.48 245.08 273.25 250.8 265.99 256.67 258.82 262.65 251.78 268.56 244.78 274.58 237.99 280.69 231.46 286.7 225.09 292.8 219.07 298.98 213.48 305.07 208.17 311.24 203.38 317.51 199.18 323.7 195.36 329.99 192.2 336.39 189.75 342.73 187.73 349.2 186.43 355.8 185.86 362.35 185.66 369.06 186.15 375.93 187.27 382.77 188.61 389.78 190.47 396.97 192.78 404.14 195.05 411.5 197.59 419.05 200.33" stroke-dasharray="10 10" transform="rotate(60.599999999999994, 400, 400)" opacity="0.55"></path><path d="M422.25 219.72C429.16 222.04 436.01 224.35 442.78 226.61 449.55 228.47 456.23 230.23 462.79 231.86 469.34 233.06 475.76 234.16 482.01 235.17 491.23 236.11 508.43 237.64 516.26 238.5 523.58 239.36 536.09 242.41 541.14 244.8 548.44 251.73 554.14 266.66 554.36 273.15 554.24 280.19 552.91 295.91 552.07 304.44 551.82 310.27 551.64 316.28 551.58 322.41 552.02 328.59 552.69 334.87 553.63 341.2 555.16 347.57 557.01 353.97 559.18 360.37 561.93 366.78 564.95 373.18 568.2 379.53 571.88 385.89 575.56 392.05 579.14 398.01 582.91 403.97 586.38 409.73 589.48 415.29 593.75 423.57 598.96 439.36 599.63 446.97 598.97 454.62 593.35 469.96 588.51 477.81 584.7 483.27 580.29 488.84 575.37 494.54 570.17 500.51 564.53 506.64 558.52 512.96 552.33 519.54 545.86 526.3 539.16 533.2 532.37 540.32 525.43 547.54 518.39 554.79 511.31 562.11 504.18 569.34 497.03 576.37 489.9 583.26 482.76 589.79 475.67 595.82 468.6 601.45 461.57 606.39 454.61 610.53 447.67 614.04 440.79 616.59 433.99 618.09 427.21 618.83 420.49 618.48 413.86 617.02 407.24 614.84 400.68 611.64 394.22 607.47 387.75 602.84 381.51 597.58 375.5 591.88 369.48 586.12 363.69 580.18 358.13 574.21 352.55 568.54 347.19 563.05 342.05 557.83 336.9 553.14 331.96 548.81 327.24 544.88 320.21 540.09 307.11 533.07 301 530.57 294.96 528.8 283.52 525.62 278.07 523.82 272.54 521.9 261.76 516.37 256.47 512.61 251.01 508.31 240.26 497.47 235 490.98 231.4 486.44 227.94 481.54 224.64 476.31 221.26 471.03 218.08 465.44 215.14 459.58 212.2 453.69 209.56 447.55 207.25 441.19 205.02 434.82 203.19 428.24 201.81 421.47 200.59 414.7 199.89 407.9 199.7 401.1 199.73 394.3 200.29 387.49 201.36 380.68 202.66 373.87 204.46 367.04 206.73 360.22 209.21 353.37 212.15 346.52 215.49 339.66 219 332.78 222.9 325.89 227.12 319.02 231.46 312.12 236.1 305.23 241 298.39 245.95 291.54 251.13 284.76 256.5 278.08 261.87 271.45 267.41 264.95 273.08 258.65 278.72 252.46 284.48 246.52 290.33 240.89 296.13 235.45 302.03 230.4 308 225.78 313.91 221.44 319.91 217.61 325.98 214.32 331.99 211.38 338.09 209.03 344.27 207.3 350.4 205.92 356.62 205.16 362.94 205.02 369.22 205.17 375.61 205.88 382.1 207.13 388.57 208.53 395.15 210.36 401.85 212.57 408.53 214.74 415.33 217.14 422.24 219.72" stroke-dasharray="2 6" transform="rotate(64.64, 400, 400)" opacity="0.49"></path><path d="M421.7 239.11C434.12 243.2 446.08 247.26 457.4 251.02 468.66 253.35 479.16 255.44 488.68 257.41 497.95 258.35 506.05 259.69 512.77 261.64 521.49 264.7 530.83 277.03 531.92 286.61 532.5 293.78 532.44 302.1 532.09 311.36 532.94 320.86 534.21 331.1 536.15 341.85 539.92 352.67 544.57 363.86 549.88 375.22 556.57 386.59 562.83 397.59 568.15 408.19 573.37 418.87 576.72 429.32 577.92 439.59 578.05 450.2 575.75 460.93 571.18 471.88 565.43 483.45 557.68 495.48 548.36 507.89 538.3 520.89 527.11 534.1 515.2 547.1 503.04 559.93 490.46 571.75 477.79 581.81 465.11 590.35 452.45 596.12 439.98 598.52 427.56 598.54 415.33 595.01 403.43 588.08 391.53 579.68 380.45 569.54 370.21 558.68 359.91 548.55 350.36 538.89 341.58 530.17 332.64 523.27 324.35 517.39 316.69 512.37 308.73 508.84 301.24 505.52 294.22 502.02 286.72 499.14 279.55 495.45 272.71 490.71 265.34 485.99 258.28 479.96 251.66 472.62 244.67 465.12 238.27 456.34 232.74 446.4 227.25 436.37 222.94 425.28 220.13 413.24 217.9 401.2 217.56 388.82 219.03 376.3 221.28 363.78 225.31 351.09 230.89 338.39 237.11 325.72 244.67 313.08 253.32 300.72 262.28 288.55 272.09 276.85 282.51 265.99 292.97 255.7 303.91 246.6 315.16 239.1 326.33 232.6 337.8 227.99 349.48 225.51 361.07 224.1 372.93 224.68 384.98 227.18 397 230.04 409.28 234.13 421.69 239.1" stroke-dasharray="10 9" transform="rotate(68.68, 400, 400)" opacity="0.29"></path><path d="M417.51 258.49C428.44 262.33 438.76 266.24 448.36 269.99 457.89 272.59 466.6 275.05 474.33 277.42 485.14 279.7 500.71 285.48 505.33 289.99 508.76 295.43 511.94 311.76 512.94 322.49 514.58 330.08 516.51 338.47 518.87 347.52 522.63 356.61 526.92 366.27 531.56 376.39 537.26 386.52 542.52 396.63 546.97 406.68 551.48 416.81 554.52 427 555.92 437.25 556.63 447.75 555.42 458.48 552.36 469.42 548.45 480.72 542.81 492.3 535.73 503.98 528.02 515.85 519.16 527.58 509.47 538.74 499.47 549.47 488.9 559.02 478.04 566.83 467.1 573.3 455.99 577.39 444.92 578.69 433.86 578.17 422.86 574.8 412.07 568.7 401.27 561.44 391.14 552.67 381.71 543.11 372.2 533.94 363.31 524.86 355.03 516.28 346.6 508.96 338.67 502.31 331.23 496.31 323.52 491.53 316.19 487.03 309.23 482.59 301.89 478.83 294.83 474.66 288.1 469.87 280.98 465.29 274.18 459.8 267.85 453.34 261.29 446.87 255.32 439.34 250.17 430.78 245.11 422.19 241.11 412.6 238.45 402.07 236.28 391.55 235.76 380.63 236.81 369.5 238.51 358.42 241.78 347.17 246.42 335.96 251.63 324.86 258.08 313.89 265.53 303.32 273.34 293.03 281.98 283.33 291.25 274.54 300.65 266.32 310.55 259.27 320.78 253.68 331.02 248.92 341.56 245.78 352.25 244.42 362.92 243.82 373.77 244.84 384.68 247.4 395.58 250.16 406.57 253.94 417.51 258.49" stroke-dasharray="10 9" transform="rotate(72.72, 400, 400)" opacity="0.97"></path><path d="M410.36 277.88C419.77 281.42 428.53 285.1 436.56 288.75 444.54 291.53 451.74 294.26 458.06 296.95 466.94 299.89 479.93 306.33 484.13 310.53 487.68 315.18 492.48 328.48 494.62 337.22 496.82 343.35 499.19 350.26 501.77 357.89 505.37 365.53 509.25 373.84 513.24 382.79 518.01 391.73 522.34 400.9 525.98 410.22 529.75 419.58 532.39 429.17 533.77 438.91 534.76 448.78 534.26 458.87 532.32 469.08 529.81 479.43 525.88 489.85 520.7 500.13 515.04 510.34 508.31 520.15 500.73 529.21 492.87 537.73 484.35 545.07 475.39 550.83 466.32 555.48 456.94 558.16 447.42 558.61 437.89 557.73 428.26 554.61 418.67 549.31 409.08 543.16 399.96 535.7 391.33 527.46 382.66 519.38 374.43 511.14 366.65 503.05 358.75 495.77 351.21 488.84 344.05 482.33 336.68 476.72 329.59 471.35 322.83 466.11 315.79 461.49 309.01 456.7 302.56 451.6 295.85 446.78 289.48 441.41 283.59 435.39 277.57 429.45 272.12 422.75 267.44 415.27 262.87 407.78 259.24 399.5 256.77 390.45 254.7 381.4 254.04 372.04 254.72 362.55 255.92 353.11 258.45 343.6 262.17 334.21 266.37 324.97 271.66 315.97 277.87 307.44 284.41 299.21 291.74 291.62 299.67 284.92 307.79 278.71 316.41 273.57 325.35 269.7 334.38 266.43 343.69 264.5 353.13 264.01 362.61 264 372.2 265.29 381.78 267.79 391.38 270.36 400.95 273.78 410.36 277.88" stroke-dasharray="8 11" transform="rotate(76.76, 400, 400)" opacity="0.65"></path><path d="M401.47 297.27C409.37 300.45 416.68 303.84 423.34 307.3 429.97 310.12 435.93 312.99 441.17 315.88 448.63 319.37 460.04 326.65 464.15 330.89 467.97 335.27 474.17 346.85 477.1 354.23 479.63 359.34 482.2 365.14 484.83 371.61 488.16 378.07 491.57 385.21 494.92 393 498.84 400.79 502.3 408.88 505.19 417.18 508.22 425.51 510.39 434.08 511.6 442.78 512.63 451.52 512.55 460.4 511.36 469.26 509.83 478.11 507.19 486.85 503.52 495.28 499.53 503.51 494.6 511.21 488.89 518.12 482.96 524.51 476.36 529.83 469.25 533.79 462.04 536.92 454.42 538.49 446.51 538.32 438.58 537.22 430.42 534.42 422.14 529.92 413.85 524.81 405.82 518.62 398.11 511.7 390.37 504.81 382.9 497.59 375.73 490.3 368.48 483.47 361.48 476.75 354.76 470.23 347.9 464.29 341.26 458.49 334.89 452.82 328.36 447.62 322.07 442.36 316.09 436.99 309.98 431.88 304.2 426.48 298.89 420.72 293.52 415.07 288.7 408.94 284.56 402.32 280.54 395.72 277.33 388.58 275.09 380.94 273.17 373.29 272.41 365.52 272.77 357.74 273.52 350.01 275.37 342.35 278.23 334.92 281.45 327.61 285.61 320.64 290.56 314.17 295.8 307.95 301.74 302.37 308.24 297.59 314.93 293.17 322.09 289.66 329.58 287.2 337.17 285.13 345.04 284.12 353.03 284.23 361.08 284.61 369.23 286 377.35 288.33 385.49 290.64 393.58 293.65 401.47 297.27" stroke-dasharray="6 5" transform="rotate(80.80000000000001, 400, 400)" opacity="0.21"></path><path d="M392.34 316.66C398.78 319.44 404.75 322.46 410.21 325.62 418.14 329.77 431.4 337.94 436.77 342.06 441.76 345.88 449.91 354.62 453.33 359.81 456.98 365.28 464.24 378.63 468.01 386.61 470.97 392.09 473.86 398.14 476.6 404.75 479.71 411.35 482.4 418.22 484.6 425.24 486.93 432.28 488.6 439.47 489.56 446.71 490.46 453.94 490.54 461.18 489.8 468.28 488.9 475.3 487.15 482.1 484.6 488.5 481.87 494.68 478.38 500.3 474.21 505.19 467.45 511.46 451.07 518.03 441.77 517.83 435.44 516.67 428.78 514.24 421.88 510.53 414.98 506.41 408.16 501.42 401.5 495.81 394.83 490.15 388.29 484.1 381.93 477.85 375.53 471.82 369.28 465.72 363.23 459.66 357.11 453.92 351.16 448.22 345.43 442.59 339.63 437.26 334.04 431.91 328.76 426.54 323.42 421.36 318.39 416.06 313.79 410.61 309.19 405.25 305.07 399.66 301.54 393.84 298.12 388.04 295.37 381.97 293.41 375.65 291.68 369.33 290.89 363.07 290.99 356.96 291.36 350.88 292.62 345 294.68 339.42 297.01 333.94 300.09 328.83 303.84 324.23 307.81 319.78 312.38 315.92 317.43 312.74 322.64 309.78 328.28 307.56 334.22 306.15 340.27 304.96 346.57 304.57 353.01 305.03 359.51 305.61 366.11 306.94 372.7 309 379.32 310.99 385.9 313.56 392.34 316.66" stroke-dasharray="3 9" transform="rotate(84.84, 400, 400)" opacity="0.20"></path><path d="M384.49 336.05C394.59 340.45 403.45 345.8 410.85 351.61 418.34 356.32 424.62 361.75 429.69 367.86 435.26 373.3 440.12 379.94 444.27 387.81 449.45 395.47 454.26 404.71 458.28 415.45 463.23 426.18 466.46 437.47 467.76 448.59 469.08 459.58 467.97 470.08 464.53 479.13 460.75 487.46 454.68 493.65 446.74 496.75 438.63 498.46 428.88 496.69 417.94 491.15 406.99 484.57 395.95 475.61 385.31 465.5 374.62 455.68 364.22 445.29 354.59 434.96 344.87 425.24 335.92 415.35 328.36 405.48 320.93 395.86 315.15 385.86 311.73 375.75 308.94 365.63 309.03 356.35 311.6 348.36 314.87 340.55 320.44 334.36 327.68 330.28 335.37 326.61 344.43 325.21 354.16 326.3 364.06 327.52 374.38 330.81 384.49 336.05" stroke-dasharray="10 5" transform="rotate(88.88, 400, 400)" opacity="0.72"></path><path d="M379.25 355.43C386.73 358.94 393.55 363.36 399.55 368.3 405.62 372.65 411.02 377.67 415.65 383.17 420.59 388.29 425.02 394.18 428.81 400.76 433.13 407.22 436.97 414.58 439.96 422.73 443.46 430.86 445.59 439.02 446.33 446.72 446.74 457.75 439.32 473.75 431.68 476.91 426.04 477.57 419.06 475.92 410.98 471.76 402.9 467.02 394.54 460.54 386.35 453.07 378.16 445.62 370.13 437.47 362.67 429.19 355.23 421.13 348.41 412.89 342.67 404.81 337.08 396.84 332.7 388.86 330.05 381.22 327.65 370.25 332.75 354.23 339.37 349.84 344.45 347.57 350.63 346.9 357.45 347.94 364.36 348.94 371.77 351.44 379.25 355.43" stroke-dasharray="2 7" transform="rotate(92.92, 400, 400)" opacity="0.75"></path><path d="M377.5 374.82C387.42 379.51 396.55 387.12 403.71 395.87 411.41 403.97 417.93 414.08 421.64 424.97 426.44 440.64 416.4 457.24 402.17 452.37 391.62 446.13 380.1 435.72 370.08 424.36 360.24 413.15 352.17 401.19 348.37 390.84 346.26 377.03 363.13 368.64 377.5 374.82" stroke-dasharray="3 7" transform="rotate(96.96, 400, 400)" opacity="0.96"></path></g></svg>